<?xml version="1.0" encoding="UTF-8" standalone="no"?>
<!DOCTYPE svg PUBLIC "-//W3C//DTD SVG 1.1//EN"
 "http://www.w3.org/Graphics/SVG/1.1/DTD/svg11.dtd">
<!-- Generated by graphviz version 2.43.0 (0)
 -->
<!-- Title: Иерархия классов. Графический вид. Pages: 1 -->
<svg width="252pt" height="124pt"
 viewBox="0.00 0.00 252.00 123.50" xmlns="http://www.w3.org/2000/svg" xmlns:xlink="http://www.w3.org/1999/xlink">
<g id="graph0" class="graph" transform="scale(1 1) rotate(0) translate(4 119.5)">
<title>Иерархия классов. Графический вид.</title>
<!-- Node0 -->
<g id="Node000000" class="node">
<title>Node0</title>
<g id="a_Node000000"><a xlink:title=" ">
<polygon fill="#e0e0e0" stroke="#999999" points="84,-72.5 0,-72.5 0,-53.5 84,-53.5 84,-72.5"/>
<text text-anchor="middle" x="42" y="-60.5" font-family="Helvetica,sans-Serif" font-size="10.00">std::true_type</text>
</a>
</g>
</g>
<!-- Node1 -->
<g id="Node000001" class="node">
<title>Node1</title>
<g id="a_Node000001"><a xlink:href="structare__same.html" target="_top" xlink:title=" ">
<polygon fill="white" stroke="#666666" points="228.5,-115.5 135.5,-115.5 135.5,-96.5 228.5,-96.5 228.5,-115.5"/>
<text text-anchor="middle" x="182" y="-103.5" font-family="Helvetica,sans-Serif" font-size="10.00">are_same&lt;... &gt;</text>
</a>
</g>
</g>
<!-- Node0&#45;&gt;Node1 -->
<g id="edge4_Node000000_Node000001" class="edge">
<title>Node0&#45;&gt;Node1</title>
<g id="a_edge4_Node000000_Node000001"><a xlink:title=" ">
<path fill="none" stroke="#63b8ff" d="M83.43,-75.6C104.85,-82.27 130.73,-90.34 150.46,-96.48"/>
<polygon fill="#63b8ff" stroke="#63b8ff" points="84.22,-72.18 73.63,-72.54 82.13,-78.86 84.22,-72.18"/>
</a>
</g>
</g>
<!-- Node2 -->
<g id="Node000002" class="node">
<title>Node2</title>
<g id="a_Node000002"><a xlink:href="structis__list_3_01std_1_1list_3_01Args_8_8_8_01_4_01_4.html" target="_top" xlink:title=" ">
<polygon fill="white" stroke="#666666" points="228,-78 136,-78 136,-48 228,-48 228,-78"/>
<text text-anchor="start" x="144" y="-66" font-family="Helvetica,sans-Serif" font-size="10.00">is_list&lt; std::list</text>
<text text-anchor="middle" x="182" y="-55" font-family="Helvetica,sans-Serif" font-size="10.00">&lt; Args... &gt; &gt;</text>
</a>
</g>
</g>
<!-- Node0&#45;&gt;Node2 -->
<g id="edge5_Node000000_Node000002" class="edge">
<title>Node0&#45;&gt;Node2</title>
<g id="a_edge5_Node000000_Node000002"><a xlink:title=" ">
<path fill="none" stroke="#63b8ff" d="M94.18,-63C107.74,-63 122.3,-63 135.54,-63"/>
<polygon fill="#63b8ff" stroke="#63b8ff" points="94.03,-59.5 84.03,-63 94.03,-66.5 94.03,-59.5"/>
</a>
</g>
</g>
<!-- Node3 -->
<g id="Node000003" class="node">
<title>Node3</title>
<g id="a_Node000003"><a xlink:href="structis__vector_3_01std_1_1vector_3_01Args_8_8_8_01_4_01_4.html" target="_top" xlink:title=" ">
<polygon fill="white" stroke="#666666" points="244,-30 120,-30 120,0 244,0 244,-30"/>
<text text-anchor="start" x="128" y="-18" font-family="Helvetica,sans-Serif" font-size="10.00">is_vector&lt; std::vector</text>
<text text-anchor="middle" x="182" y="-7" font-family="Helvetica,sans-Serif" font-size="10.00">&lt; Args... &gt; &gt;</text>
</a>
</g>
</g>
<!-- Node0&#45;&gt;Node3 -->
<g id="edge6_Node000000_Node000003" class="edge">
<title>Node0&#45;&gt;Node3</title>
<g id="a_edge6_Node000000_Node000003"><a xlink:title=" ">
<path fill="none" stroke="#63b8ff" d="M80.05,-50.11C97.8,-43.94 119.19,-36.5 137.69,-30.06"/>
<polygon fill="#63b8ff" stroke="#63b8ff" points="78.89,-46.81 70.59,-53.4 81.19,-53.42 78.89,-46.81"/>
</a>
</g>
</g>
</g>
</svg>
